<!--?xml version="1.0" standalone="no"?-->
              <svg id="sw-js-blob-svg" viewBox="0 0 100 100" xmlns="http://www.w3.org/2000/svg" version="1.1">
                    <defs> 
                        <linearGradient id="sw-gradient" x1="0" x2="1" y1="1" y2="0">
                            <stop id="stop1" stop-color="rgba(121.95, 53.268, 20.761, 1)" offset="0%"></stop>
                            <stop id="stop2" stop-color="rgba(10.388, 8.574, 5.581, 1)" offset="100%"></stop>
                        </linearGradient>
                    </defs>
                <path fill="none" d="M23.6,-40.9C30.7,-36.8,36.7,-30.7,39.8,-23.6C42.9,-16.4,43.1,-8.2,42,-0.7C40.8,6.9,38.2,13.7,35,20.8C31.9,27.8,28.2,35.1,22.2,38.4C16.3,41.7,8.2,41.1,0.6,40C-7,39,-13.9,37.6,-19.7,34.2C-25.4,30.7,-29.8,25.3,-34.1,19.2C-38.4,13.2,-42.6,6.6,-42.5,0C-42.5,-6.5,-38.1,-13,-33.7,-18.8C-29.2,-24.6,-24.6,-29.6,-19,-34.5C-13.3,-39.5,-6.7,-44.3,0.8,-45.7C8.3,-47.1,16.5,-45,23.6,-40.9Z" width="100%" height="100%" transform="translate(50 50)" stroke-width="1" style="transition: all 0.3s ease 0s;" stroke="url(#sw-gradient)"></path>
              </svg>